<svg width="32" height="36" viewBox="0 0 32 36" fill="none" xmlns="http://www.w3.org/2000/svg">
<g id="Group">
<g id="Page-1">
<g id="Dribbble-Light-Preview">
<g id="Group 48">
<path id="Vector" d="M31.2508 10.584C31.2506 9.97869 31.1247 9.4438 30.8702 8.98474C30.6201 8.53332 30.2457 8.15496 29.7435 7.85581C25.5977 5.39705 21.448 2.94582 17.3036 0.484554C16.1863 -0.178917 15.1029 -0.15473 13.9939 0.518267C12.3438 1.51924 4.08216 6.38775 1.6203 7.85443C0.606441 8.45812 0.113095 9.38202 0.112851 10.5829C0.111267 15.5276 0.112851 20.4722 0.111267 25.417C0.111267 26.009 0.232014 26.5335 0.475337 26.9857C0.725482 27.4508 1.10515 27.8395 1.61896 28.1455C4.08094 29.6121 12.3437 34.4803 13.9934 35.4815C15.1029 36.1549 16.1863 36.1789 17.3039 35.5152C21.4485 33.0538 25.5985 30.6027 29.7448 28.144C30.2586 27.8382 30.6383 27.4492 30.8884 26.9844C31.1314 26.5323 31.2524 26.0078 31.2524 25.4156C31.2524 25.4156 31.2524 15.5288 31.2508 10.584Z" fill="#CBD5E1"/>
<path id="Vector_2" d="M15.7295 17.9518L0.475403 26.9857C0.725548 27.4508 1.10521 27.8396 1.61903 28.1455C4.08101 29.6122 12.3437 34.4803 13.9935 35.4815C15.103 36.1549 16.1863 36.179 17.304 35.5152C21.4485 33.0538 25.5985 30.6027 29.7449 28.144C30.2587 27.8382 30.6384 27.4492 30.8885 26.9845L15.7295 17.9518Z" fill="#CBD5E1"/>
<path id="Vector_3" d="M31.2508 10.584C31.2505 9.9787 31.1247 9.44381 30.8701 8.98474L15.7294 17.9518L30.8884 26.9844C31.1314 26.5323 31.2521 26.0078 31.2524 25.4156C31.2524 25.4156 31.2524 15.5288 31.2508 10.584Z" fill="#CBD5E1"/>
<path id="Vector_4" d="M24.7106 14.5746V16.2632H26.3523V14.5746H27.1732V16.2632H28.8149V17.1075H27.1732V18.7961H28.8149V19.6404H27.1732V21.329H26.3523V19.6404H24.7106V21.329H23.8898V19.6404H22.2481V18.7961H23.8898V17.1075H22.2481V16.2632H23.8898V14.5746H24.7106ZM26.3523 17.1075H24.7106V18.7961H26.3523V17.1075Z" fill="#060C26"/>
<path id="Vector_5" d="M15.7629 6.09406C20.045 6.09406 23.7836 8.48605 25.786 12.0415L25.7665 12.0073L20.7284 14.9911C19.7358 13.2624 17.9161 12.0958 15.8287 12.0718L15.7629 12.0714C12.5797 12.0714 9.99897 14.7257 9.99897 17.9999C9.99897 19.0706 10.2765 20.0743 10.7591 20.9412C11.7527 22.7252 13.6204 23.9285 15.7629 23.9285C17.9187 23.9285 19.797 22.7099 20.7855 20.9068L20.7615 20.9501L25.792 23.9476C23.8115 27.473 20.1242 29.8576 15.8919 29.9051L15.7629 29.9058C11.4674 29.9058 7.71815 27.4991 5.72073 23.9249C4.74561 22.18 4.18768 20.1571 4.18768 17.9999C4.18768 11.4246 9.36998 6.09406 15.7629 6.09406Z" fill="#060C26"/>
</g>
</g>
</g>
</g>
</svg>
