<svg width="30" height="34" viewBox="0 0 30 34" fill="none" xmlns="http://www.w3.org/2000/svg">
<g id="Group">
<g id="Page-1">
<g id="Dribbble-Light-Preview">
<g id="icons">
<path id="Vector" d="M29.6387 0L26.8594 30.6942L14.818 34L2.77636 30.6942L-0.00233459 0H29.6387ZM24.0383 6.24119H14.8071H5.41247L5.86176 9.9478H14.8071H15.3096L14.8071 10.161L6.1887 13.821L6.47452 17.4441L14.8071 17.4716L19.2732 17.486L18.9873 22.317L14.8071 23.517V23.5132L14.7728 23.5229L10.7358 22.4838L10.4908 19.485H10.4774H6.73287H6.71969L7.20984 25.2741L14.8072 27.5649V27.5608L14.8209 27.5649L22.3776 25.3159L23.3578 13.821H14.8072H14.7861L14.8072 13.8116L23.671 9.9478L24.0383 6.24119Z" fill="#CBD5E1"/>
</g>
</g>
</g>
</g>
</svg>
