<svg width="34" height="33" viewBox="0 0 34 33" fill="none" xmlns="http://www.w3.org/2000/svg">
<g id="Frame 1">
<circle id="Ellipse 3" cx="17" cy="16.5" r="16" stroke="white"/>
<path id="Vector" d="M22.5166 9.09693C22.4282 8.88094 22.2575 8.71568 22.0475 8.64288L22.046 8.64236L22.0445 8.64184L22.0414 8.64079L22.035 8.63865L22.0212 8.63427C22.0116 8.6313 22.0011 8.62827 21.9899 8.62522C21.9674 8.61914 21.9416 8.61301 21.9127 8.60734C21.8546 8.59597 21.7841 8.58645 21.7009 8.58226C21.534 8.57384 21.3201 8.58703 21.0576 8.6464C20.6198 8.74539 20.0515 8.97153 19.3379 9.43491C19.2913 9.4652 19.244 9.4965 19.1961 9.52884C19.1482 9.51683 19.1003 9.50523 19.0522 9.49406C17.7511 9.19114 16.4043 9.19114 15.1032 9.49406C15.0551 9.50524 15.0072 9.51683 14.9593 9.52885C14.9114 9.4965 14.8641 9.4652 14.8174 9.43491C14.1031 8.97129 13.5335 8.7452 13.0946 8.64628C12.8314 8.58698 12.6171 8.57387 12.45 8.58225C12.3668 8.58642 12.2962 8.59589 12.2383 8.60717C12.2094 8.61281 12.1837 8.61887 12.1613 8.62489C12.1501 8.6279 12.1397 8.63091 12.1301 8.63384L12.1164 8.63817L12.11 8.64027L12.107 8.64131L12.1054 8.64182L12.104 8.64233C11.8922 8.71523 11.7202 8.8821 11.6319 9.10021C11.303 9.91266 11.2158 10.8086 11.3741 11.668C11.3818 11.7097 11.3901 11.7514 11.399 11.793C11.365 11.8418 11.332 11.8912 11.3 11.9413C10.8062 12.7139 10.5435 13.6355 10.5558 14.5818C10.557 16.6084 11.142 17.9964 12.1314 18.8896C12.6915 19.3951 13.3415 19.7046 13.9948 19.8996C14.0695 19.922 14.1443 19.9428 14.219 19.9622C14.2081 20.0006 14.198 20.0393 14.1886 20.0782C14.149 20.2419 14.1228 20.41 14.1106 20.5805C14.1095 20.5959 14.1088 20.6113 14.1086 20.6268L14.0809 22.1273L14.0807 22.1435C14.0807 22.1482 14.0807 22.1529 14.0807 22.1576C14.0306 22.1702 13.9796 22.1795 13.928 22.1855C13.7692 22.2041 13.6083 22.1906 13.4545 22.1458C13.3008 22.101 13.1571 22.0257 13.0318 21.9242C12.9064 21.8228 12.8018 21.697 12.7242 21.554L12.7162 21.5396C12.5025 21.1641 12.2073 20.8427 11.8528 20.5998C11.4982 20.3568 11.0937 20.1989 10.6698 20.1381C10.224 20.0742 9.81137 20.388 9.74818 20.8392C9.68498 21.2903 9.99516 21.7079 10.441 21.7718C10.619 21.7974 10.7892 21.8637 10.9386 21.9661C11.0862 22.0672 11.2098 22.201 11.3 22.3575C11.4803 22.6868 11.7225 22.9774 12.013 23.2126C12.3062 23.4499 12.6427 23.6262 13.0034 23.7313C13.3546 23.8336 13.7218 23.8665 14.0851 23.828C14.0858 24.0259 14.0863 24.1778 14.0863 24.255C14.0863 24.7106 14.4322 25.08 14.8588 25.08H19.3244C19.7509 25.08 20.0968 24.7106 20.0968 24.255V21.1278C20.1178 20.7736 20.0819 20.4186 19.9913 20.0782C19.9788 20.0314 19.9653 19.9848 19.9508 19.9385C19.9994 19.9262 20.0481 19.9132 20.0968 19.8996C20.769 19.7123 21.4405 19.4059 22.0173 18.8911C23.0122 18.0029 23.5984 16.6137 23.5996 14.5818C23.6119 13.6355 23.3492 12.7139 22.8554 11.9413C22.8234 11.8912 22.7903 11.8416 22.7563 11.7927C22.7651 11.7512 22.7733 11.7097 22.781 11.668C22.939 10.8069 22.8494 9.90938 22.5166 9.09693Z" fill="white"/>
</g>
</svg>
