<svg width="34" height="33" viewBox="0 0 34 33" fill="none" xmlns="http://www.w3.org/2000/svg">
<g id="Frame 3">
<circle id="Ellipse 3" cx="17" cy="16.5" r="16" stroke="white"/>
<g id="Group 2">
<path id="Vector" d="M22.4737 18.5595C21.6718 18.5595 20.8863 18.4343 20.1419 18.1886C19.7786 18.0634 19.366 18.1599 19.1272 18.4035L17.6514 19.5181C15.958 18.6142 14.8742 17.5311 13.9826 15.85L15.0671 14.4091C15.3401 14.1361 15.438 13.7365 15.321 13.3622C15.0733 12.613 14.9474 11.8268 14.9474 11.0263C14.9474 10.4605 14.4869 10 13.9211 10H11.5263C10.9605 10 10.5 10.4605 10.5 11.0263C10.5 17.6283 15.8717 23 22.4737 23C23.0395 23 23.5 22.5395 23.5 21.9737V19.5858C23.5 19.0199 23.0395 18.5595 22.4737 18.5595Z" fill="white"/>
</g>
</g>
</svg>
