<svg width="35" height="34" viewBox="0 0 35 34" fill="none" xmlns="http://www.w3.org/2000/svg">
<g id="Group">
<path id="Vector" d="M32.6475 0H2.98883C1.79107 0 0.818176 0.971429 0.818176 2.17065V31.8308C0.818176 33.0271 1.79107 34.0015 2.98883 34.0015H32.6475C33.8453 34.0015 34.8182 33.0286 34.8182 31.8308V2.16918C34.8167 0.971429 33.8453 0 32.6475 0ZM16.2567 19.164C16.2567 20.109 16.167 20.9144 15.9877 21.5786C15.8085 22.2429 15.5366 22.7764 15.175 23.1938C14.812 23.6053 14.3579 23.9095 13.8171 24.0991C13.2748 24.2916 12.6443 24.3857 11.9257 24.3857C11.2937 24.3857 10.7235 24.2857 10.2106 24.0873C9.69771 23.8889 9.26417 23.6053 8.90558 23.2349C8.54552 22.8631 8.26922 22.4149 8.07523 21.8887C7.87977 21.3611 7.78278 20.7718 7.78278 20.1266V19.7034H9.81969C9.81969 21.5992 10.5222 22.5486 11.9271 22.5486C12.2872 22.5486 12.6061 22.5075 12.8883 22.4207C13.169 22.3326 13.4071 22.1724 13.6025 21.9328C13.798 21.6947 13.945 21.3656 14.0464 20.9394C14.1478 20.5132 14.1992 19.9576 14.1992 19.2713V8.6635H16.2596V19.164H16.2567ZM27.6243 22.2429C27.4142 22.6721 27.1144 23.0468 26.7308 23.3672C26.3443 23.6876 25.8725 23.9359 25.3185 24.1182C24.7659 24.296 24.1427 24.3857 23.4564 24.3857C20.4143 24.3857 18.808 23.185 18.6448 20.7806H20.6465C20.6553 22.1386 21.5856 22.819 23.4344 22.819C23.8444 22.819 24.2118 22.7749 24.5278 22.6823C24.8438 22.5927 25.1083 22.4678 25.317 22.3091C25.5286 22.1503 25.6873 21.9608 25.7976 21.7447C25.9048 21.5301 25.9622 21.2965 25.9622 21.0408C25.9622 20.7718 25.9195 20.5587 25.8387 20.3971C25.7564 20.2339 25.5947 20.0884 25.3567 19.962C25.1201 19.8371 24.7894 19.7137 24.3691 19.5946C23.9473 19.4712 23.3962 19.3198 22.7172 19.142C22.0559 18.9774 21.4827 18.8128 21.0036 18.6482C20.5216 18.4865 20.1277 18.2881 19.8206 18.0545C19.5119 17.8193 19.2827 17.5313 19.1342 17.1888C18.9858 16.845 18.9123 16.4114 18.9123 15.8882C18.9123 15.4282 19.0093 15.0006 19.2048 14.6067C19.4002 14.2128 19.678 13.8719 20.0425 13.5824C20.404 13.2928 20.8434 13.068 21.3578 12.9034C21.8766 12.7388 22.4497 12.658 23.0802 12.658C26.0224 12.658 27.5185 13.7029 27.5641 15.7956H25.5962C25.5257 14.7507 24.738 14.2261 23.2316 14.2261C22.8965 14.2261 22.5879 14.2599 22.3013 14.326C22.0147 14.3921 21.7693 14.4877 21.5577 14.6126C21.346 14.7375 21.1844 14.8918 21.0653 15.0755C20.9492 15.2592 20.8904 15.4723 20.8904 15.7133C20.8904 15.9323 20.9184 16.1116 20.9727 16.2512C21.0271 16.3923 21.1579 16.5246 21.3651 16.6451C21.5724 16.7656 21.8795 16.8846 22.2837 17.0022C22.6893 17.1198 23.2433 17.2638 23.9473 17.4357C24.6263 17.5989 25.2156 17.7694 25.7167 17.9442C26.2149 18.1206 26.6294 18.3337 26.963 18.5835C27.2951 18.8319 27.5391 19.1361 27.7007 19.4962C27.8595 19.8548 27.9403 20.3045 27.9403 20.8424C27.9403 21.3464 27.833 21.8138 27.6243 22.2429Z" fill="#CBD5E1"/>
</g>
</svg>
