<svg width="168" height="59" viewBox="0 0 168 59" fill="none" xmlns="http://www.w3.org/2000/svg">
<g id="Recurso 1 1" clip-path="url(#clip0_1_3631)">
<g id="Capa 2">
<g id="trazo">
<path id="Vector" d="M73.74 3.20815L72.8423 4.11908L70.6469 6.3466L68.7083 4.37813H36.1062V1.76916H68.9734L70.6469 0.0697021L73.74 3.20815Z" fill="white"/>
<path id="Vector_2" d="M38.2791 10.9554V50.2935H40.5334L38.9959 54.3272L38.2791 56.253L38.23 56.3853L37.2565 59L36.182 56.3853L36.0529 56.0694L35.6026 54.9734L33.7467 50.2935H36.0529V8.75635H67.4261V10.9554H38.2791Z" fill="white"/>
<path id="Vector_3" d="M45.2776 17.8543V41.6738C45.7579 41.914 46.1629 42.2852 46.4471 42.7457C46.7312 43.2063 46.8834 43.738 46.8866 44.2813C46.8866 45.9082 45.5427 47.2262 43.8861 47.2262C42.2294 47.2262 40.8869 45.9082 40.8869 44.2813C40.8909 43.7189 41.0539 43.1694 41.3565 42.6981C41.6591 42.2268 42.0886 41.8535 42.5941 41.6225V15.3322H60.9453V17.8543H45.2776Z" fill="white"/>
<path id="Vector_4" d="M73.9519 3.20819L70.79 6.41639L68.7812 4.37817H36.0529V1.7692H69.0464L70.79 0L73.9519 3.20819Z" fill="white"/>
<path id="Vector_5" d="M26.3499 9.99751C26.3493 10.6115 26.1473 11.2079 25.7757 11.6925C25.404 12.1772 24.8839 12.5224 24.2974 12.6738C23.711 12.8253 23.0915 12.7742 22.5368 12.5288C21.982 12.2833 21.5236 11.8575 21.2339 11.3184H6.46823V8.75636H21.1974C21.4729 8.20059 21.925 7.75534 22.4808 7.49262C23.0365 7.22989 23.6633 7.16506 24.2599 7.30861C24.8564 7.45215 25.3878 7.79568 25.7681 8.28363C26.1484 8.77158 26.3553 9.37543 26.3555 9.99751H26.3499Z" fill="white"/>
<path id="Vector_6" d="M33.5658 44.0308L30.4853 47.1564L27.3262 43.9496L29.1344 42.1164V4.37813H0V1.76917H31.8375V42.2772L33.5658 44.0308Z" fill="white"/>
<g id="TABASH">
<path id="Vector_7" d="M106.656 24.8173V36.137H104.573V31.1895H99.3346V36.137H97.2515V24.8173H99.3346V29.6865H104.573V24.8173H106.656Z" fill="white"/>
<path id="Vector_8" d="M94.7236 26.8761C94.6618 26.9857 94.595 27.0666 94.523 27.1188C94.4561 27.1658 94.3712 27.1893 94.2683 27.1893C94.1603 27.1893 94.042 27.1501 93.9134 27.0718C93.79 26.9883 93.6408 26.897 93.466 26.7978C93.2911 26.6987 93.0853 26.61 92.8487 26.5317C92.6173 26.4482 92.3421 26.4064 92.0232 26.4064C91.7352 26.4064 91.4831 26.443 91.2671 26.516C91.0511 26.5839 90.8685 26.6804 90.7193 26.8057C90.5753 26.9309 90.4673 27.0823 90.3953 27.2597C90.3233 27.4319 90.2872 27.6224 90.2872 27.8312C90.2872 28.0973 90.3593 28.3191 90.5033 28.4966C90.6524 28.674 90.8479 28.8254 91.0896 28.9506C91.3314 29.0759 91.6066 29.1881 91.9152 29.2872C92.2238 29.3864 92.5401 29.4934 92.8642 29.6082C93.1882 29.7178 93.5045 29.8483 93.8131 29.9996C94.1218 30.1458 94.3969 30.3336 94.6387 30.5633C94.8804 30.7877 95.0733 31.0643 95.2173 31.3931C95.3665 31.7219 95.4411 32.1211 95.4411 32.5908C95.4411 33.1023 95.3536 33.5824 95.1788 34.0312C95.009 34.4748 94.757 34.8636 94.4227 35.1976C94.0935 35.5264 93.6897 35.7874 93.2113 35.9805C92.733 36.1684 92.1852 36.2623 91.568 36.2623C91.2131 36.2623 90.8633 36.2258 90.5187 36.1527C90.1741 36.0848 89.8423 35.9857 89.5234 35.8552C89.2097 35.7247 88.9139 35.5682 88.6362 35.3855C88.3584 35.2029 88.1115 34.9993 87.8955 34.7749L88.505 33.7651C88.5565 33.692 88.6233 33.632 88.7056 33.585C88.7879 33.5328 88.8753 33.5067 88.9679 33.5067C89.0965 33.5067 89.2354 33.5615 89.3846 33.6711C89.5337 33.7755 89.7112 33.8929 89.9169 34.0234C90.1227 34.1539 90.3618 34.2739 90.6344 34.3835C90.9122 34.4879 91.2439 34.5401 91.6297 34.5401C92.2212 34.5401 92.679 34.3991 93.003 34.1173C93.3271 33.8303 93.4891 33.4206 93.4891 32.8883C93.4891 32.5908 93.4145 32.3481 93.2654 32.1602C93.1213 31.9724 92.9285 31.8158 92.6867 31.6905C92.445 31.5601 92.1698 31.4505 91.8612 31.3618C91.5526 31.273 91.2388 31.1765 90.9199 31.0721C90.601 30.9677 90.2873 30.8425 89.9786 30.6963C89.67 30.5502 89.3948 30.3597 89.1531 30.1249C88.9114 29.89 88.7159 29.5978 88.5667 29.2481C88.4227 28.8932 88.3507 28.4574 88.3507 27.9408C88.3507 27.5285 88.4304 27.1266 88.5899 26.7352C88.7545 26.3438 88.9911 25.9967 89.2997 25.694C89.6083 25.3913 89.9889 25.1487 90.4416 24.966C90.8942 24.7833 91.4137 24.692 92.0001 24.692C92.6584 24.692 93.2654 24.7964 93.8209 25.0051C94.3764 25.2139 94.8496 25.5062 95.2405 25.8819L94.7236 26.8761Z" fill="white"/>
<path id="Vector_9" d="M83.9632 31.8628L82.6053 28.0973C82.5385 27.9303 82.469 27.732 82.397 27.5024C82.325 27.2727 82.253 27.0249 82.181 26.7587C82.1141 27.0249 82.0447 27.2754 81.9727 27.5102C81.9007 27.7398 81.8312 27.9408 81.7644 28.113L80.4142 31.8628H83.9632ZM87.628 36.137H86.0232C85.8432 36.137 85.6966 36.0927 85.5834 36.0039C85.4703 35.91 85.3854 35.7952 85.3288 35.6595L84.4956 33.3501H79.8741L79.0409 35.6595C78.9997 35.7795 78.92 35.8891 78.8017 35.9883C78.6834 36.0875 78.5368 36.137 78.3619 36.137H76.7417L81.1317 24.8173H83.2457L87.628 36.137Z" fill="white"/>
<path id="Vector_10" d="M72.2671 34.4931C72.6528 34.4931 72.9769 34.4461 73.2392 34.3522C73.5015 34.2582 73.7098 34.133 73.8641 33.9764C74.0236 33.8198 74.1367 33.6372 74.2036 33.4284C74.2756 33.2197 74.3116 32.9979 74.3116 32.763C74.3116 32.5177 74.273 32.2985 74.1959 32.1054C74.1187 31.9071 73.9979 31.7401 73.8333 31.6044C73.6687 31.4635 73.4552 31.3565 73.1929 31.2835C72.9357 31.2104 72.6245 31.1739 72.2593 31.1739H70.1685V34.4931H72.2671ZM70.1685 26.4456V29.7178H71.8196C72.5294 29.7178 73.0643 29.5873 73.4244 29.3264C73.7895 29.0654 73.9721 28.6505 73.9721 28.0817C73.9721 27.4919 73.8075 27.0718 73.4784 26.8213C73.1492 26.5708 72.6348 26.4456 71.9353 26.4456H70.1685ZM71.9353 24.8173C72.6657 24.8173 73.2906 24.8877 73.8101 25.0286C74.3296 25.1695 74.754 25.3705 75.0831 25.6314C75.4175 25.8924 75.6618 26.2081 75.8161 26.5786C75.9704 26.9492 76.0476 27.3667 76.0476 27.8312C76.0476 28.0973 76.009 28.3531 75.9318 28.5983C75.8547 28.8384 75.7338 29.0654 75.5692 29.2794C75.4098 29.4882 75.204 29.6787 74.952 29.8509C74.7051 30.0231 74.4093 30.1692 74.0647 30.2893C75.5975 30.6389 76.3639 31.4792 76.3639 32.81C76.3639 33.2901 76.2739 33.7337 76.0938 34.1408C75.9138 34.5479 75.6515 34.9002 75.3069 35.1976C74.9623 35.4899 74.5379 35.7195 74.0339 35.8865C73.5298 36.0535 72.9537 36.137 72.3056 36.137H68.0931V24.8173H71.9353Z" fill="white"/>
<path id="Vector_11" d="M63.2736 31.8628L61.9157 28.0973C61.8488 27.9303 61.7794 27.732 61.7073 27.5024C61.6353 27.2727 61.5633 27.0249 61.4913 26.7587C61.4245 27.0249 61.355 27.2754 61.283 27.5102C61.211 27.7398 61.1416 27.9408 61.0747 28.113L59.7245 31.8628H63.2736ZM66.9383 36.137H65.3335C65.1535 36.137 65.0069 36.0927 64.8938 36.0039C64.7806 35.91 64.6957 35.7952 64.6392 35.6595L63.8059 33.3501H59.1844L58.3512 35.6595C58.31 35.7795 58.2303 35.8891 58.112 35.9883C57.9937 36.0875 57.8471 36.137 57.6722 36.137H56.052L60.442 24.8173H62.556L66.9383 36.137Z" fill="white"/>
<path id="Vector_12" d="M57.0041 26.5473H53.6403V36.137H51.5649V26.5473H48.201V24.8173H57.0041V26.5473Z" fill="white"/>
</g>
<g id="Building unique digital experiences">
<path id="Vector_13" d="M166.803 44.5112C166.803 44.3436 166.779 44.1908 166.731 44.0529C166.685 43.9122 166.617 43.7919 166.527 43.6918C166.439 43.5891 166.331 43.5106 166.203 43.4566C166.075 43.3998 165.93 43.3714 165.767 43.3714C165.426 43.3714 165.155 43.4728 164.956 43.6756C164.758 43.8757 164.636 44.1543 164.588 44.5112H166.803ZM167.378 46.4381C167.29 46.5463 167.185 46.6409 167.062 46.722C166.94 46.8005 166.808 46.8654 166.667 46.9167C166.528 46.9681 166.384 47.006 166.235 47.0303C166.086 47.0574 165.938 47.0709 165.791 47.0709C165.511 47.0709 165.253 47.0236 165.016 46.9289C164.781 46.8316 164.577 46.6909 164.404 46.507C164.233 46.3204 164.1 46.0906 164.004 45.8174C163.908 45.5443 163.86 45.2306 163.86 44.8763C163.86 44.5897 163.903 44.3219 163.988 44.0731C164.076 43.8243 164.201 43.6093 164.364 43.4282C164.526 43.2443 164.725 43.1009 164.96 42.9982C165.194 42.8927 165.458 42.84 165.751 42.84C165.994 42.84 166.218 42.8819 166.423 42.9657C166.631 43.0468 166.809 43.1658 166.959 43.3227C167.11 43.4768 167.229 43.6688 167.314 43.8987C167.4 44.1259 167.442 44.3855 167.442 44.6776C167.442 44.7911 167.43 44.8669 167.406 44.9047C167.382 44.9426 167.337 44.9615 167.27 44.9615H164.564C164.572 45.2211 164.606 45.4469 164.668 45.639C164.732 45.831 164.82 45.9919 164.932 46.1217C165.044 46.2488 165.177 46.3448 165.331 46.4097C165.486 46.4719 165.659 46.503 165.851 46.503C166.03 46.503 166.183 46.4827 166.311 46.4421C166.441 46.3989 166.553 46.3529 166.647 46.3042C166.74 46.2555 166.817 46.2109 166.879 46.1704C166.943 46.1271 166.997 46.1054 167.042 46.1054C167.101 46.1054 167.146 46.1284 167.178 46.1744L167.378 46.4381Z" fill="white"/>
<path id="Vector_14" d="M163.163 43.635C163.141 43.6648 163.12 43.6878 163.099 43.704C163.077 43.7202 163.048 43.7283 163.011 43.7283C162.971 43.7283 162.927 43.7121 162.879 43.6797C162.831 43.6445 162.771 43.6066 162.699 43.5661C162.629 43.5255 162.543 43.489 162.439 43.4566C162.338 43.4214 162.212 43.4038 162.063 43.4038C161.863 43.4038 161.687 43.4403 161.535 43.5133C161.383 43.5837 161.256 43.6864 161.152 43.8216C161.05 43.9569 160.973 44.1205 160.92 44.3125C160.869 44.5045 160.844 44.7195 160.844 44.9575C160.844 45.2063 160.872 45.428 160.928 45.6227C160.984 45.8147 161.062 45.977 161.164 46.1095C161.267 46.2393 161.391 46.3394 161.535 46.4097C161.682 46.4773 161.846 46.5111 162.027 46.5111C162.2 46.5111 162.343 46.4908 162.455 46.4502C162.567 46.407 162.659 46.3597 162.731 46.3083C162.805 46.2569 162.867 46.2109 162.915 46.1704C162.965 46.1271 163.015 46.1054 163.063 46.1054C163.121 46.1054 163.167 46.1284 163.198 46.1744L163.398 46.4381C163.31 46.549 163.21 46.6436 163.099 46.722C162.987 46.8005 162.865 46.8667 162.735 46.9208C162.607 46.9722 162.472 47.01 162.331 47.0344C162.19 47.0587 162.046 47.0709 161.899 47.0709C161.646 47.0709 161.41 47.0236 161.192 46.9289C160.976 46.8343 160.788 46.6977 160.628 46.5192C160.468 46.338 160.343 46.1163 160.252 45.8539C160.161 45.5916 160.116 45.2928 160.116 44.9575C160.116 44.6519 160.157 44.3693 160.24 44.1097C160.325 43.85 160.448 43.6269 160.608 43.4403C160.77 43.251 160.969 43.1036 161.204 42.9982C161.441 42.8927 161.713 42.84 162.019 42.84C162.304 42.84 162.555 42.8873 162.771 42.9819C162.989 43.0739 163.183 43.2051 163.35 43.3754L163.163 43.635Z" fill="white"/>
<path id="Vector_15" d="M156.557 43.5012C156.645 43.4011 156.738 43.3105 156.837 43.2294C156.935 43.1483 157.039 43.0793 157.149 43.0225C157.261 42.963 157.378 42.9184 157.5 42.8886C157.626 42.8562 157.76 42.84 157.904 42.84C158.125 42.84 158.32 42.8778 158.488 42.9535C158.659 43.0266 158.8 43.132 158.912 43.27C159.026 43.4052 159.113 43.5688 159.172 43.7608C159.23 43.9528 159.26 44.1651 159.26 44.3977V47.0141H158.544V44.3977C158.544 44.0867 158.473 43.846 158.332 43.6756C158.193 43.5025 157.982 43.416 157.696 43.416C157.486 43.416 157.289 43.4674 157.105 43.5701C156.923 43.6729 156.756 43.8122 156.601 43.988V47.0141H155.885V42.9049H156.313C156.414 42.9049 156.477 42.9549 156.501 43.055L156.557 43.5012Z" fill="white"/>
<path id="Vector_16" d="M154.372 44.5112C154.372 44.3436 154.348 44.1908 154.3 44.0529C154.254 43.9122 154.186 43.7919 154.096 43.6918C154.008 43.5891 153.9 43.5106 153.772 43.4566C153.644 43.3998 153.499 43.3714 153.336 43.3714C152.995 43.3714 152.724 43.4728 152.525 43.6756C152.327 43.8757 152.205 44.1543 152.157 44.5112H154.372ZM154.947 46.4381C154.859 46.5463 154.754 46.6409 154.631 46.722C154.509 46.8005 154.377 46.8654 154.236 46.9167C154.097 46.9681 153.953 47.006 153.804 47.0303C153.655 47.0574 153.507 47.0709 153.36 47.0709C153.08 47.0709 152.822 47.0236 152.584 46.9289C152.35 46.8316 152.146 46.6909 151.973 46.507C151.802 46.3204 151.669 46.0906 151.573 45.8174C151.477 45.5443 151.429 45.2306 151.429 44.8763C151.429 44.5897 151.472 44.3219 151.557 44.0731C151.645 43.8243 151.77 43.6093 151.933 43.4282C152.095 43.2443 152.294 43.1009 152.529 42.9982C152.763 42.8927 153.027 42.84 153.32 42.84C153.563 42.84 153.787 42.8819 153.992 42.9657C154.2 43.0468 154.378 43.1658 154.527 43.3227C154.679 43.4768 154.798 43.6688 154.883 43.8987C154.969 44.1259 155.011 44.3855 155.011 44.6776C155.011 44.7911 154.999 44.8669 154.975 44.9047C154.951 44.9426 154.906 44.9615 154.839 44.9615H152.133C152.141 45.2211 152.175 45.4469 152.237 45.639C152.301 45.831 152.389 45.9919 152.501 46.1217C152.612 46.2488 152.746 46.3448 152.9 46.4097C153.055 46.4719 153.228 46.503 153.42 46.503C153.599 46.503 153.752 46.4827 153.88 46.4421C154.01 46.3989 154.122 46.3529 154.216 46.3042C154.309 46.2555 154.386 46.2109 154.448 46.1704C154.511 46.1271 154.566 46.1054 154.611 46.1054C154.67 46.1054 154.715 46.1284 154.747 46.1744L154.947 46.4381Z" fill="white"/>
<path id="Vector_17" d="M150.492 42.9049V47.0141H149.78V42.9049H150.492ZM150.644 41.6149C150.644 41.6852 150.629 41.7515 150.6 41.8137C150.573 41.8732 150.536 41.9273 150.488 41.976C150.442 42.0219 150.388 42.0584 150.324 42.0855C150.262 42.1125 150.197 42.1261 150.128 42.1261C150.059 42.1261 149.993 42.1125 149.932 42.0855C149.873 42.0584 149.821 42.0219 149.776 41.976C149.731 41.9273 149.695 41.8732 149.668 41.8137C149.641 41.7515 149.628 41.6852 149.628 41.6149C149.628 41.5446 149.641 41.4784 149.668 41.4162C149.695 41.3513 149.731 41.2958 149.776 41.2498C149.821 41.2012 149.873 41.1633 149.932 41.1363C149.993 41.1092 150.059 41.0957 150.128 41.0957C150.197 41.0957 150.262 41.1092 150.324 41.1363C150.388 41.1633 150.442 41.2012 150.488 41.2498C150.536 41.2958 150.573 41.3513 150.6 41.4162C150.629 41.4784 150.644 41.5446 150.644 41.6149Z" fill="white"/>
<path id="Vector_18" d="M147.503 43.7284C147.631 43.4471 147.788 43.2281 147.975 43.0712C148.162 42.9117 148.389 42.8319 148.659 42.8319C148.744 42.8319 148.825 42.8414 148.902 42.8603C148.982 42.8792 149.053 42.909 149.114 42.9495L149.062 43.4891C149.046 43.5567 149.006 43.5905 148.942 43.5905C148.905 43.5905 148.851 43.5824 148.779 43.5661C148.707 43.5499 148.625 43.5418 148.535 43.5418C148.407 43.5418 148.292 43.5607 148.191 43.5986C148.092 43.6364 148.003 43.6932 147.923 43.769C147.846 43.842 147.775 43.9339 147.711 44.0448C147.65 44.153 147.594 44.2774 147.543 44.418V47.0142H146.828V42.9049H147.235C147.313 42.9049 147.366 42.9198 147.395 42.9495C147.425 42.9793 147.445 43.0307 147.455 43.1037L147.503 43.7284Z" fill="white"/>
<path id="Vector_19" d="M145.314 44.5112C145.314 44.3436 145.29 44.1908 145.242 44.0529C145.196 43.9122 145.129 43.7919 145.038 43.6918C144.95 43.5891 144.842 43.5106 144.714 43.4566C144.586 43.3998 144.441 43.3714 144.278 43.3714C143.937 43.3714 143.667 43.4728 143.467 43.6756C143.269 43.8757 143.147 44.1543 143.099 44.5112H145.314ZM145.889 46.4381C145.802 46.5463 145.696 46.6409 145.574 46.722C145.451 46.8005 145.319 46.8654 145.178 46.9167C145.039 46.9681 144.895 47.006 144.746 47.0303C144.597 47.0574 144.449 47.0709 144.302 47.0709C144.022 47.0709 143.764 47.0236 143.527 46.9289C143.292 46.8316 143.088 46.6909 142.915 46.507C142.744 46.3204 142.611 46.0906 142.515 45.8174C142.419 45.5443 142.371 45.2306 142.371 44.8763C142.371 44.5897 142.414 44.3219 142.499 44.0731C142.587 43.8243 142.712 43.6093 142.875 43.4282C143.038 43.2443 143.236 43.1009 143.471 42.9982C143.705 42.8927 143.969 42.84 144.262 42.84C144.505 42.84 144.729 42.8819 144.934 42.9657C145.142 43.0468 145.32 43.1658 145.47 43.3227C145.622 43.4768 145.74 43.6688 145.825 43.8987C145.911 44.1259 145.953 44.3855 145.953 44.6776C145.953 44.7911 145.941 44.8669 145.917 44.9047C145.893 44.9426 145.848 44.9615 145.782 44.9615H143.075C143.083 45.2211 143.118 45.4469 143.179 45.639C143.243 45.831 143.331 45.9919 143.443 46.1217C143.555 46.2488 143.688 46.3448 143.843 46.4097C143.997 46.4719 144.17 46.503 144.362 46.503C144.541 46.503 144.694 46.4827 144.822 46.4421C144.953 46.3989 145.065 46.3529 145.158 46.3042C145.251 46.2555 145.328 46.2109 145.39 46.1704C145.454 46.1271 145.508 46.1054 145.554 46.1054C145.612 46.1054 145.658 46.1284 145.69 46.1744L145.889 46.4381Z" fill="white"/>
<path id="Vector_20" d="M138.837 46.0244C138.967 46.2029 139.11 46.3286 139.265 46.4016C139.419 46.4746 139.592 46.5112 139.784 46.5112C140.163 46.5112 140.453 46.3746 140.656 46.1014C140.858 45.8283 140.96 45.4389 140.96 44.9332C140.96 44.6654 140.936 44.4356 140.888 44.2436C140.842 44.0516 140.776 43.8947 140.688 43.773C140.6 43.6486 140.492 43.558 140.364 43.5012C140.236 43.4444 140.091 43.416 139.928 43.416C139.696 43.416 139.492 43.4701 139.316 43.5783C139.143 43.6865 138.983 43.8393 138.837 44.0367V46.0244ZM138.801 43.5418C138.971 43.3282 139.169 43.1564 139.392 43.0266C139.616 42.8968 139.872 42.8319 140.16 42.8319C140.395 42.8319 140.606 42.8779 140.796 42.9698C140.985 43.0591 141.146 43.1929 141.279 43.3714C141.413 43.5472 141.515 43.7663 141.587 44.0286C141.659 44.2909 141.695 44.5924 141.695 44.9332C141.695 45.2361 141.655 45.5187 141.575 45.781C141.495 46.0406 141.379 46.2664 141.227 46.4584C141.078 46.6477 140.894 46.7978 140.676 46.9087C140.46 47.0169 140.216 47.071 139.944 47.071C139.696 47.071 139.483 47.029 139.304 46.9452C139.129 46.8587 138.973 46.7397 138.837 46.5882V48.4055H138.121V42.9049H138.549C138.65 42.9049 138.713 42.955 138.737 43.055L138.801 43.5418Z" fill="white"/>
<path id="Vector_21" d="M137.465 47.0141H136.781C136.723 47.0141 136.676 46.9993 136.642 46.9695C136.61 46.9371 136.583 46.9019 136.562 46.8641L135.542 45.2536C135.531 45.2915 135.519 45.3293 135.506 45.3672C135.495 45.4024 135.479 45.4348 135.458 45.4646L134.515 46.8641C134.488 46.9019 134.459 46.9371 134.427 46.9695C134.397 46.9993 134.356 47.0141 134.303 47.0141H133.667L135.086 44.9048L133.723 42.9049H134.407C134.465 42.9049 134.508 42.9144 134.535 42.9333C134.561 42.9522 134.585 42.9793 134.607 43.0144L135.602 44.5559C135.623 44.4775 135.657 44.4018 135.702 44.3287L136.574 43.0307C136.598 42.9928 136.623 42.9631 136.65 42.9414C136.679 42.9171 136.713 42.9049 136.753 42.9049H137.409L136.046 44.8683L137.465 47.0141Z" fill="white"/>
<path id="Vector_22" d="M132.68 44.5112C132.68 44.3436 132.656 44.1908 132.608 44.0529C132.562 43.9122 132.494 43.7919 132.404 43.6918C132.316 43.5891 132.208 43.5106 132.08 43.4566C131.952 43.3998 131.807 43.3714 131.644 43.3714C131.303 43.3714 131.033 43.4728 130.833 43.6756C130.635 43.8757 130.513 44.1543 130.465 44.5112H132.68ZM133.255 46.4381C133.167 46.5463 133.062 46.6409 132.94 46.722C132.817 46.8005 132.685 46.8654 132.544 46.9167C132.405 46.9681 132.261 47.006 132.112 47.0303C131.963 47.0574 131.815 47.0709 131.668 47.0709C131.388 47.0709 131.13 47.0236 130.893 46.9289C130.658 46.8316 130.454 46.6909 130.281 46.507C130.11 46.3204 129.977 46.0906 129.881 45.8174C129.785 45.5443 129.737 45.2306 129.737 44.8763C129.737 44.5897 129.78 44.3219 129.865 44.0731C129.953 43.8243 130.078 43.6093 130.241 43.4282C130.404 43.2443 130.602 43.1009 130.837 42.9982C131.071 42.8927 131.335 42.84 131.628 42.84C131.871 42.84 132.095 42.8819 132.3 42.9657C132.508 43.0468 132.686 43.1658 132.836 43.3227C132.988 43.4768 133.106 43.6688 133.191 43.8987C133.277 44.1259 133.319 44.3855 133.319 44.6776C133.319 44.7911 133.307 44.8669 133.283 44.9047C133.259 44.9426 133.214 44.9615 133.147 44.9615H130.441C130.449 45.2211 130.483 45.4469 130.545 45.639C130.609 45.831 130.697 45.9919 130.809 46.1217C130.921 46.2488 131.054 46.3448 131.208 46.4097C131.363 46.4719 131.536 46.503 131.728 46.503C131.907 46.503 132.06 46.4827 132.188 46.4421C132.319 46.3989 132.43 46.3529 132.524 46.3042C132.617 46.2555 132.694 46.2109 132.756 46.1704C132.82 46.1271 132.874 46.1054 132.92 46.1054C132.978 46.1054 133.023 46.1284 133.055 46.1744L133.255 46.4381Z" fill="white"/>
<path id="Vector_23" d="M126.809 41.1293V47.0142H126.108V41.1293H126.809Z" fill="white"/>
<path id="Vector_24" d="M124.332 45.1924C124.009 45.203 123.733 45.2297 123.505 45.2723C123.279 45.3122 123.094 45.3655 122.95 45.4321C122.808 45.4987 122.704 45.5772 122.639 45.6678C122.576 45.7584 122.544 45.8596 122.544 45.9714C122.544 46.078 122.561 46.1699 122.595 46.2471C122.63 46.3243 122.675 46.3883 122.733 46.4389C122.794 46.4868 122.863 46.5228 122.942 46.5467C123.023 46.5681 123.11 46.5787 123.202 46.5787C123.325 46.5787 123.438 46.5667 123.54 46.5427C123.643 46.5161 123.739 46.4788 123.828 46.4309C123.92 46.3829 124.006 46.3257 124.088 46.2591C124.172 46.1925 124.253 46.1166 124.332 46.0314V45.1924ZM122.068 43.5384C122.288 43.3226 122.526 43.1615 122.78 43.0549C123.035 42.9484 123.317 42.8951 123.627 42.8951C123.85 42.8951 124.048 42.9324 124.222 43.007C124.395 43.0816 124.541 43.1855 124.659 43.3186C124.777 43.4518 124.866 43.6129 124.926 43.802C124.987 43.9912 125.017 44.1989 125.017 44.4253V47.0142H124.706C124.638 47.0142 124.585 47.0035 124.548 46.9822C124.512 46.9582 124.483 46.913 124.462 46.8464L124.383 46.4628C124.278 46.5614 124.176 46.6493 124.076 46.7265C123.976 46.8011 123.871 46.865 123.761 46.9183C123.651 46.9689 123.533 47.0075 123.407 47.0342C123.283 47.0635 123.145 47.0781 122.993 47.0781C122.838 47.0781 122.693 47.0568 122.556 47.0142C122.42 46.9689 122.3 46.9023 122.198 46.8144C122.098 46.7265 122.018 46.616 121.958 46.4828C121.9 46.347 121.871 46.1872 121.871 46.0034C121.871 45.8436 121.914 45.6904 122.001 45.544C122.087 45.3948 122.228 45.263 122.422 45.1484C122.616 45.0339 122.87 44.9407 123.182 44.8688C123.494 44.7942 123.878 44.7516 124.332 44.7409V44.4253C124.332 44.111 124.265 43.874 124.131 43.7142C123.997 43.5517 123.802 43.4704 123.544 43.4704C123.371 43.4704 123.225 43.4931 123.107 43.5384C122.992 43.581 122.891 43.6303 122.804 43.6862C122.72 43.7395 122.647 43.7887 122.584 43.834C122.523 43.8766 122.463 43.8979 122.402 43.8979C122.355 43.8979 122.315 43.8859 122.28 43.862C122.246 43.8353 122.217 43.8034 122.194 43.7661L122.068 43.5384Z" fill="white"/>
<path id="Vector_25" d="M120.572 47.0781C120.257 47.0781 120.015 46.9888 119.844 46.8104C119.676 46.6319 119.592 46.3749 119.592 46.0393V43.5623H119.112C119.07 43.5623 119.034 43.5503 119.005 43.5263C118.976 43.4997 118.962 43.4597 118.962 43.4065V43.1228L119.616 43.0389L119.777 41.7884C119.785 41.7485 119.802 41.7165 119.828 41.6925C119.857 41.6659 119.894 41.6526 119.938 41.6526H120.293V43.0469H121.446V43.5623H120.293V45.9914C120.293 46.1618 120.333 46.2883 120.415 46.3709C120.496 46.4535 120.601 46.4948 120.73 46.4948C120.803 46.4948 120.866 46.4854 120.919 46.4668C120.974 46.4455 121.021 46.4228 121.061 46.3989C121.1 46.3749 121.133 46.3536 121.159 46.3349C121.188 46.3136 121.213 46.303 121.234 46.303C121.271 46.303 121.303 46.3256 121.332 46.3709L121.537 46.7105C121.416 46.825 121.271 46.9156 121.1 46.9822C120.929 47.0461 120.753 47.0781 120.572 47.0781Z" fill="white"/>
<path id="Vector_26" d="M118.196 42.967V47.0142H117.495V42.967H118.196ZM118.346 41.6966C118.346 41.7658 118.331 41.8311 118.302 41.8923C118.276 41.9509 118.239 42.0042 118.192 42.0521C118.148 42.0974 118.094 42.1334 118.031 42.16C117.97 42.1866 117.906 42.2 117.838 42.2C117.77 42.2 117.705 42.1866 117.645 42.16C117.587 42.1334 117.536 42.0974 117.491 42.0521C117.447 42.0042 117.411 41.9509 117.385 41.8923C117.359 41.8311 117.346 41.7658 117.346 41.6966C117.346 41.6273 117.359 41.5621 117.385 41.5008C117.411 41.4369 117.447 41.3823 117.491 41.337C117.536 41.2891 117.587 41.2518 117.645 41.2251C117.705 41.1985 117.77 41.1852 117.838 41.1852C117.906 41.1852 117.97 41.1985 118.031 41.2251C118.094 41.2518 118.148 41.2891 118.192 41.337C118.239 41.3823 118.276 41.4369 118.302 41.5008C118.331 41.5621 118.346 41.6273 118.346 41.6966Z" fill="white"/>
<path id="Vector_27" d="M114.755 45.0365C114.896 45.0365 115.021 45.0165 115.129 44.9765C115.236 44.9366 115.327 44.8807 115.4 44.8087C115.474 44.7368 115.529 44.6516 115.566 44.5531C115.602 44.4518 115.621 44.3413 115.621 44.2215C115.621 43.9738 115.546 43.7767 115.396 43.6302C115.249 43.4837 115.035 43.4104 114.755 43.4104C114.471 43.4104 114.254 43.4837 114.105 43.6302C113.958 43.7767 113.884 43.9738 113.884 44.2215C113.884 44.3413 113.903 44.4518 113.939 44.5531C113.979 44.6516 114.035 44.7368 114.109 44.8087C114.182 44.8807 114.273 44.9366 114.38 44.9765C114.488 45.0165 114.613 45.0365 114.755 45.0365ZM116.018 47.2338C116.018 47.1353 115.991 47.0554 115.936 46.9941C115.881 46.9329 115.806 46.8849 115.711 46.8503C115.619 46.8157 115.512 46.7917 115.388 46.7784C115.265 46.7624 115.134 46.7504 114.995 46.7424C114.858 46.7344 114.719 46.7264 114.577 46.7184C114.436 46.7105 114.299 46.6971 114.168 46.6785C114.021 46.7477 113.9 46.8356 113.806 46.9422C113.714 47.0461 113.668 47.1686 113.668 47.3097C113.668 47.4003 113.69 47.4842 113.735 47.5614C113.782 47.6413 113.853 47.7093 113.947 47.7652C114.042 47.8238 114.16 47.8691 114.302 47.901C114.446 47.9356 114.615 47.953 114.81 47.953C114.999 47.953 115.168 47.9356 115.318 47.901C115.467 47.8664 115.593 47.8171 115.696 47.7532C115.801 47.6893 115.881 47.6134 115.936 47.5255C115.991 47.4376 116.018 47.3404 116.018 47.2338ZM116.731 43.1268V43.3905C116.731 43.4784 116.676 43.5343 116.566 43.5583L116.113 43.6182C116.202 43.794 116.247 43.9884 116.247 44.2015C116.247 44.3986 116.209 44.5784 116.133 44.7408C116.059 44.9006 115.957 45.0378 115.826 45.1523C115.694 45.2669 115.537 45.3548 115.353 45.416C115.169 45.4773 114.97 45.5079 114.755 45.5079C114.568 45.5079 114.392 45.4853 114.227 45.44C114.143 45.4933 114.079 45.5505 114.034 45.6118C113.989 45.6704 113.967 45.7303 113.967 45.7916C113.967 45.8874 114.005 45.9607 114.081 46.0113C114.16 46.0592 114.262 46.0939 114.388 46.1152C114.514 46.1365 114.657 46.1498 114.818 46.1551C114.98 46.1605 115.146 46.1698 115.314 46.1831C115.484 46.1937 115.65 46.2137 115.81 46.243C115.973 46.2723 116.117 46.3203 116.243 46.3868C116.369 46.4534 116.47 46.5453 116.546 46.6625C116.625 46.7797 116.664 46.9315 116.664 47.118C116.664 47.2911 116.621 47.4589 116.534 47.6214C116.45 47.7838 116.328 47.9277 116.168 48.0528C116.008 48.1807 115.811 48.2819 115.577 48.3565C115.346 48.4337 115.085 48.4723 114.794 48.4723C114.503 48.4723 114.248 48.443 114.03 48.3844C113.812 48.3258 113.631 48.2473 113.487 48.1487C113.342 48.0502 113.233 47.9356 113.16 47.8051C113.089 47.6773 113.054 47.5428 113.054 47.4016C113.054 47.2019 113.115 47.0327 113.239 46.8942C113.362 46.7557 113.531 46.6452 113.747 46.5626C113.628 46.5094 113.534 46.4388 113.463 46.3509C113.395 46.2603 113.361 46.1391 113.361 45.9873C113.361 45.9287 113.371 45.8688 113.392 45.8075C113.413 45.7436 113.445 45.681 113.487 45.6198C113.531 45.5558 113.585 45.4959 113.648 45.44C113.711 45.3841 113.785 45.3348 113.869 45.2922C113.672 45.1803 113.518 45.0325 113.408 44.8487C113.298 44.6623 113.243 44.4465 113.243 44.2015C113.243 44.0044 113.279 43.8259 113.353 43.6661C113.429 43.5037 113.534 43.3665 113.668 43.2546C113.802 43.1401 113.96 43.0522 114.144 42.9909C114.331 42.9297 114.534 42.899 114.755 42.899C114.928 42.899 115.089 42.919 115.239 42.959C115.388 42.9963 115.525 43.0522 115.648 43.1268H116.731Z" fill="white"/>
<path id="Vector_28" d="M112.213 42.967V47.0142H111.512V42.967H112.213ZM112.363 41.6966C112.363 41.7658 112.348 41.8311 112.319 41.8923C112.293 41.9509 112.256 42.0042 112.209 42.0521C112.164 42.0974 112.111 42.1334 112.048 42.16C111.987 42.1866 111.923 42.2 111.855 42.2C111.786 42.2 111.722 42.1866 111.662 42.16C111.604 42.1334 111.553 42.0974 111.508 42.0521C111.464 42.0042 111.428 41.9509 111.402 41.8923C111.376 41.8311 111.362 41.7658 111.362 41.6966C111.362 41.6273 111.376 41.5621 111.402 41.5008C111.428 41.4369 111.464 41.3823 111.508 41.337C111.553 41.2891 111.604 41.2518 111.662 41.2251C111.722 41.1985 111.786 41.1852 111.855 41.1852C111.923 41.1852 111.987 41.1985 112.048 41.2251C112.111 41.2518 112.164 41.2891 112.209 41.337C112.256 41.3823 112.293 41.4369 112.319 41.5008C112.348 41.5621 112.363 41.6273 112.363 41.6966Z" fill="white"/>
<path id="Vector_29" d="M109.665 43.9299C109.534 43.7514 109.392 43.6276 109.24 43.5583C109.087 43.4864 108.917 43.4505 108.728 43.4505C108.358 43.4505 108.073 43.585 107.873 43.854C107.674 44.123 107.574 44.5065 107.574 45.0046C107.574 45.2683 107.596 45.4947 107.641 45.6838C107.686 45.8702 107.751 46.0247 107.838 46.1472C107.924 46.2671 108.031 46.355 108.157 46.4109C108.283 46.4668 108.426 46.4948 108.586 46.4948C108.817 46.4948 109.018 46.4415 109.188 46.335C109.362 46.2285 109.52 46.078 109.665 45.8835V43.9299ZM110.366 41.1293V47.0142H109.948C109.849 47.0142 109.786 46.9649 109.759 46.8664L109.696 46.375C109.526 46.5827 109.331 46.7505 109.114 46.8783C108.896 47.0062 108.644 47.0701 108.358 47.0701C108.129 47.0701 107.922 47.0262 107.735 46.9383C107.549 46.8477 107.39 46.7159 107.259 46.5428C107.128 46.3696 107.027 46.1539 106.956 45.8955C106.885 45.6372 106.85 45.3402 106.85 45.0046C106.85 44.7063 106.889 44.4293 106.968 44.1736C107.046 43.9153 107.159 43.6915 107.306 43.5024C107.453 43.3133 107.633 43.1655 107.846 43.0589C108.061 42.9497 108.302 42.8951 108.57 42.8951C108.814 42.8951 109.023 42.9378 109.196 43.023C109.372 43.1056 109.528 43.2214 109.665 43.3706V41.1293H110.366Z" fill="white"/>
<path id="Vector_30" d="M103.56 44.5491C103.56 44.384 103.537 44.2335 103.489 44.0976C103.445 43.9591 103.378 43.8406 103.289 43.7421C103.202 43.6409 103.096 43.5636 102.97 43.5103C102.844 43.4544 102.701 43.4264 102.541 43.4264C102.205 43.4264 101.938 43.5263 101.741 43.7261C101.547 43.9232 101.426 44.1975 101.379 44.5491H103.56ZM104.127 46.4468C104.041 46.5533 103.937 46.6466 103.816 46.7265C103.696 46.8037 103.566 46.8676 103.426 46.9182C103.29 46.9688 103.148 47.0061 103.001 47.0301C102.854 47.0567 102.709 47.0701 102.564 47.0701C102.289 47.0701 102.034 47.0234 101.8 46.9302C101.569 46.8343 101.368 46.6958 101.198 46.5147C101.03 46.3309 100.899 46.1046 100.804 45.8355C100.71 45.5665 100.662 45.2576 100.662 44.9087C100.662 44.6263 100.704 44.3627 100.788 44.1176C100.875 43.8726 100.998 43.6608 101.158 43.4824C101.319 43.3013 101.514 43.1601 101.745 43.0589C101.976 42.955 102.236 42.9031 102.525 42.9031C102.764 42.9031 102.984 42.9444 103.186 43.0269C103.391 43.1068 103.567 43.224 103.714 43.3785C103.864 43.5303 103.98 43.7194 104.064 43.9458C104.148 44.1696 104.19 44.4252 104.19 44.7129C104.19 44.8248 104.179 44.8993 104.155 44.9366C104.131 44.9739 104.087 44.9926 104.021 44.9926H101.355C101.363 45.2483 101.397 45.4707 101.458 45.6598C101.521 45.8489 101.607 46.0073 101.718 46.1352C101.828 46.2604 101.959 46.3549 102.111 46.4188C102.264 46.4801 102.434 46.5107 102.623 46.5107C102.799 46.5107 102.95 46.4908 103.076 46.4508C103.205 46.4082 103.315 46.3629 103.407 46.315C103.499 46.267 103.575 46.2231 103.635 46.1831C103.698 46.1405 103.752 46.1192 103.797 46.1192C103.854 46.1192 103.899 46.1418 103.93 46.1871L104.127 46.4468Z" fill="white"/>
<path id="Vector_31" d="M99.7794 42.967V47.0142H99.362C99.2623 47.0142 99.1993 46.9649 99.173 46.8663L99.1179 46.4309C98.9446 46.6253 98.7504 46.7824 98.5352 46.9023C98.3199 47.0195 98.0731 47.0781 97.7949 47.0781C97.577 47.0781 97.3841 47.0421 97.2161 46.9702C97.0507 46.8956 96.9116 46.7918 96.7987 46.6586C96.6858 46.5254 96.6005 46.3643 96.5428 46.1752C96.4876 45.9861 96.4601 45.777 96.4601 45.5479V42.967H97.161V45.5479C97.161 45.8542 97.2292 46.0913 97.3657 46.2591C97.5048 46.4269 97.7161 46.5108 97.9997 46.5108C98.207 46.5108 98.4 46.4615 98.5785 46.363C98.7596 46.2617 98.9263 46.1232 99.0785 45.9475V42.967H99.7794Z" fill="white"/>
<path id="Vector_32" d="M94.6916 43.9259C94.5656 43.7554 94.4252 43.6343 94.2703 43.5623C94.1154 43.4878 93.9435 43.4505 93.7545 43.4505C93.3843 43.4505 93.0995 43.585 92.9 43.854C92.7005 44.123 92.6008 44.5065 92.6008 45.0046C92.6008 45.2683 92.6231 45.4947 92.6677 45.6838C92.7123 45.8702 92.778 46.0247 92.8646 46.1472C92.9512 46.2671 93.0575 46.355 93.1835 46.4109C93.3095 46.4668 93.4526 46.4948 93.6127 46.4948C93.8437 46.4948 94.0445 46.4415 94.2152 46.335C94.3884 46.2285 94.5472 46.078 94.6916 45.8835V43.9259ZM95.3925 42.9671V48.3845H94.6916V46.4109C94.5262 46.608 94.3359 46.7678 94.1207 46.8903C93.9054 47.0102 93.66 47.0701 93.3843 47.0701C93.156 47.0701 92.9486 47.0262 92.7622 46.9383C92.5758 46.8477 92.417 46.7159 92.2858 46.5427C92.1545 46.3696 92.0535 46.1539 91.9826 45.8955C91.9117 45.6372 91.8763 45.3402 91.8763 45.0046C91.8763 44.7063 91.9157 44.4293 91.9944 44.1736C92.0732 43.9152 92.186 43.6915 92.333 43.5024C92.48 43.3133 92.6598 43.1655 92.8725 43.0589C93.0877 42.9497 93.3292 42.8951 93.597 42.8951C93.8568 42.8951 94.0773 42.9418 94.2585 43.035C94.4396 43.1282 94.5997 43.2587 94.7389 43.4265L94.7861 43.1149C94.8124 43.0163 94.8753 42.9671 94.9751 42.9671H95.3925Z" fill="white"/>
<path id="Vector_33" d="M90.9412 42.967V47.0142H90.2404V42.967H90.9412ZM91.0909 41.6966C91.0909 41.7658 91.0764 41.8311 91.0475 41.8923C91.0213 41.9509 90.9845 42.0042 90.9373 42.0521C90.8927 42.0974 90.8389 42.1334 90.7759 42.16C90.7155 42.1866 90.6512 42.2 90.5829 42.2C90.5147 42.2 90.4504 42.1866 90.39 42.16C90.3322 42.1334 90.281 42.0974 90.2364 42.0521C90.1918 42.0042 90.1564 41.9509 90.1301 41.8923C90.1039 41.8311 90.0907 41.7658 90.0907 41.6966C90.0907 41.6273 90.1039 41.5621 90.1301 41.5008C90.1564 41.4369 90.1918 41.3823 90.2364 41.337C90.281 41.2891 90.3322 41.2518 90.39 41.2251C90.4504 41.1985 90.5147 41.1852 90.5829 41.1852C90.6512 41.1852 90.7155 41.1985 90.7759 41.2251C90.8389 41.2518 90.8927 41.2891 90.9373 41.337C90.9845 41.3823 91.0213 41.4369 91.0475 41.5008C91.0764 41.5621 91.0909 41.6273 91.0909 41.6966Z" fill="white"/>
<path id="Vector_34" d="M86.4713 43.5543C86.5579 43.4557 86.6498 43.3665 86.7469 43.2866C86.844 43.2067 86.9464 43.1388 87.054 43.0829C87.1643 43.0243 87.2798 42.9803 87.4005 42.951C87.5239 42.9191 87.6564 42.9031 87.7982 42.9031C88.0161 42.9031 88.2077 42.9404 88.3731 43.0149C88.5411 43.0869 88.6802 43.1907 88.7904 43.3266C88.9033 43.4597 88.9886 43.6209 89.0464 43.81C89.1041 43.9991 89.133 44.2082 89.133 44.4372V47.0141H88.4282V44.4372C88.4282 44.1309 88.3586 43.8939 88.2195 43.7261C88.083 43.5556 87.8743 43.4704 87.5934 43.4704C87.3861 43.4704 87.1918 43.521 87.0107 43.6222C86.8322 43.7234 86.6668 43.8606 86.5146 44.0337V47.0141H85.8098V42.967H86.2311C86.3308 42.967 86.3925 43.0163 86.4161 43.1148L86.4713 43.5543Z" fill="white"/>
<path id="Vector_35" d="M84.6985 42.967V47.0142H84.2811C84.1813 47.0142 84.1183 46.9649 84.0921 46.8663L84.037 46.4309C83.8637 46.6253 83.6695 46.7824 83.4542 46.9023C83.239 47.0195 82.9922 47.0781 82.714 47.0781C82.4961 47.0781 82.3031 47.0421 82.1351 46.9702C81.9698 46.8956 81.8307 46.7918 81.7178 46.6586C81.6049 46.5254 81.5196 46.3643 81.4618 46.1752C81.4067 45.9861 81.3792 45.777 81.3792 45.5479V42.967H82.08V45.5479C82.08 45.8542 82.1483 46.0913 82.2848 46.2591C82.4239 46.4269 82.6352 46.5108 82.9187 46.5108C83.1261 46.5108 83.319 46.4615 83.4975 46.363C83.6787 46.2617 83.8453 46.1232 83.9976 45.9475V42.967H84.6985Z" fill="white"/>
<path id="Vector_36" d="M76.7023 45.0365C76.844 45.0365 76.9687 45.0165 77.0763 44.9765C77.1839 44.9366 77.2745 44.8807 77.348 44.8087C77.4215 44.7368 77.4766 44.6516 77.5134 44.5531C77.5501 44.4518 77.5685 44.3413 77.5685 44.2215C77.5685 43.9738 77.4937 43.7767 77.3441 43.6302C77.1971 43.4837 76.9831 43.4104 76.7023 43.4104C76.4188 43.4104 76.2022 43.4837 76.0526 43.6302C75.9056 43.7767 75.8321 43.9738 75.8321 44.2215C75.8321 44.3413 75.8504 44.4518 75.8872 44.5531C75.9266 44.6516 75.983 44.7368 76.0565 44.8087C76.13 44.8807 76.2206 44.9366 76.3282 44.9765C76.4358 45.0165 76.5605 45.0365 76.7023 45.0365ZM77.9662 47.2338C77.9662 47.1353 77.9386 47.0554 77.8835 46.9941C77.8284 46.9329 77.7536 46.8849 77.6591 46.8503C77.5672 46.8157 77.4596 46.7917 77.3362 46.7784C77.2128 46.7624 77.0816 46.7504 76.9424 46.7424C76.8059 46.7344 76.6668 46.7264 76.5251 46.7184C76.3833 46.7105 76.2468 46.6971 76.1156 46.6785C75.9686 46.7477 75.8478 46.8356 75.7533 46.9422C75.6614 47.0461 75.6155 47.1686 75.6155 47.3097C75.6155 47.4003 75.6378 47.4842 75.6824 47.5614C75.7297 47.6413 75.8006 47.7093 75.8951 47.7652C75.9896 47.8238 76.1077 47.8691 76.2494 47.901C76.3938 47.9356 76.5631 47.953 76.7574 47.953C76.9464 47.953 77.1157 47.9356 77.2653 47.901C77.4149 47.8664 77.5409 47.8171 77.6433 47.7532C77.7483 47.6893 77.8284 47.6134 77.8835 47.5255C77.9386 47.4376 77.9662 47.3404 77.9662 47.2338ZM78.6789 43.1268V43.3905C78.6789 43.4784 78.6238 43.5343 78.5135 43.5583L78.0607 43.6182C78.1499 43.794 78.1946 43.9884 78.1946 44.2015C78.1946 44.3986 78.1565 44.5784 78.0804 44.7408C78.0069 44.9006 77.9045 45.0378 77.7733 45.1523C77.642 45.2669 77.4845 45.3548 77.3008 45.416C77.117 45.4773 76.9175 45.5079 76.7023 45.5079C76.5159 45.5079 76.34 45.4853 76.1746 45.44C76.0906 45.4933 76.0263 45.5505 75.9817 45.6118C75.9371 45.6704 75.9148 45.7303 75.9148 45.7916C75.9148 45.8874 75.9528 45.9607 76.0289 46.0113C76.1077 46.0592 76.2101 46.0939 76.3361 46.1152C76.4621 46.1365 76.6051 46.1498 76.7653 46.1551C76.928 46.1605 77.0934 46.1698 77.2614 46.1831C77.432 46.1937 77.5974 46.2137 77.7575 46.243C77.9203 46.2723 78.0646 46.3203 78.1906 46.3868C78.3166 46.4534 78.4177 46.5453 78.4938 46.6625C78.5726 46.7797 78.6119 46.9315 78.6119 47.118C78.6119 47.2911 78.5686 47.4589 78.482 47.6214C78.398 47.7838 78.2759 47.9277 78.1158 48.0528C77.9557 48.1807 77.7588 48.2819 77.5252 48.3565C77.2942 48.4337 77.033 48.4723 76.7416 48.4723C76.4503 48.4723 76.1956 48.443 75.9778 48.3844C75.7599 48.3258 75.5788 48.2473 75.4344 48.1487C75.29 48.0502 75.1811 47.9356 75.1076 47.8051C75.0367 47.6773 75.0013 47.5428 75.0013 47.4016C75.0013 47.2019 75.0629 47.0327 75.1863 46.8942C75.3097 46.7557 75.479 46.6452 75.6943 46.5626C75.5761 46.5094 75.4816 46.4388 75.4108 46.3509C75.3425 46.2603 75.3084 46.1391 75.3084 45.9873C75.3084 45.9287 75.3189 45.8688 75.3399 45.8075C75.3609 45.7436 75.3924 45.681 75.4344 45.6198C75.479 45.5558 75.5328 45.4959 75.5958 45.44C75.6588 45.3841 75.7323 45.3348 75.8163 45.2922C75.6194 45.1803 75.4659 45.0325 75.3556 44.8487C75.2454 44.6623 75.1903 44.4465 75.1903 44.2015C75.1903 44.0044 75.227 43.8259 75.3005 43.6661C75.3766 43.5037 75.4816 43.3665 75.6155 43.2546C75.7494 43.1401 75.9082 43.0522 76.0919 42.9909C76.2783 42.9297 76.4818 42.899 76.7023 42.899C76.8755 42.899 77.0369 42.919 77.1866 42.959C77.3362 42.9963 77.4727 43.0522 77.5961 43.1268H78.6789Z" fill="white"/>
<path id="Vector_37" d="M71.5826 43.5543C71.6692 43.4557 71.7611 43.3665 71.8582 43.2866C71.9553 43.2067 72.0577 43.1388 72.1653 43.0829C72.2756 43.0243 72.3911 42.9803 72.5118 42.951C72.6352 42.9191 72.7678 42.9031 72.9095 42.9031C73.1274 42.9031 73.319 42.9404 73.4844 43.0149C73.6524 43.0869 73.7915 43.1907 73.9018 43.3266C74.0146 43.4597 74.1 43.6209 74.1577 43.81C74.2155 43.9991 74.2443 44.2082 74.2443 44.4372V47.0141H73.5395V44.4372C73.5395 44.1309 73.47 43.8939 73.3308 43.7261C73.1943 43.5556 72.9856 43.4704 72.7048 43.4704C72.4974 43.4704 72.3031 43.521 72.122 43.6222C71.9435 43.7234 71.7781 43.8606 71.6259 44.0337V47.0141H70.9211V42.967H71.3424C71.4421 42.967 71.5038 43.0163 71.5275 43.1148L71.5826 43.5543Z" fill="white"/>
<path id="Vector_38" d="M69.7695 42.967V47.0142H69.0686V42.967H69.7695ZM69.9191 41.6966C69.9191 41.7658 69.9047 41.8311 69.8758 41.8923C69.8495 41.9509 69.8128 42.0042 69.7655 42.0521C69.7209 42.0974 69.6671 42.1334 69.6041 42.16C69.5437 42.1866 69.4794 42.2 69.4112 42.2C69.3429 42.2 69.2786 42.1866 69.2182 42.16C69.1605 42.1334 69.1093 42.0974 69.0647 42.0521C69.02 42.0042 68.9846 41.9509 68.9584 41.8923C68.9321 41.8311 68.919 41.7658 68.919 41.6966C68.919 41.6273 68.9321 41.5621 68.9584 41.5008C68.9846 41.4369 69.02 41.3823 69.0647 41.337C69.1093 41.2891 69.1605 41.2518 69.2182 41.2251C69.2786 41.1985 69.3429 41.1852 69.4112 41.1852C69.4794 41.1852 69.5437 41.1985 69.6041 41.2251C69.6671 41.2518 69.7209 41.2891 69.7655 41.337C69.8128 41.3823 69.8495 41.4369 69.8758 41.5008C69.9047 41.5621 69.9191 41.6273 69.9191 41.6966Z" fill="white"/>
<path id="Vector_39" d="M67.2214 43.9299C67.0901 43.7514 66.9484 43.6276 66.7961 43.5583C66.6439 43.4864 66.4732 43.4505 66.2842 43.4505C65.9141 43.4505 65.6293 43.585 65.4298 43.854C65.2303 44.123 65.1305 44.5065 65.1305 45.0046C65.1305 45.2683 65.1528 45.4947 65.1975 45.6838C65.2421 45.8702 65.3077 46.0247 65.3943 46.1472C65.481 46.2671 65.5873 46.355 65.7133 46.4109C65.8393 46.4668 65.9824 46.4948 66.1425 46.4948C66.3735 46.4948 66.5743 46.4415 66.7449 46.335C66.9182 46.2285 67.077 46.078 67.2214 45.8835V43.9299ZM67.9222 41.1293V47.0142H67.5049C67.4051 47.0142 67.3421 46.9649 67.3159 46.8664L67.2529 46.375C67.0822 46.5827 66.888 46.7505 66.6701 46.8783C66.4522 47.0062 66.2002 47.0701 65.9141 47.0701C65.6857 47.0701 65.4784 47.0262 65.292 46.9383C65.1056 46.8477 64.9468 46.7159 64.8155 46.5428C64.6843 46.3696 64.5832 46.1539 64.5123 45.8955C64.4415 45.6372 64.406 45.3402 64.406 45.0046C64.406 44.7063 64.4454 44.4293 64.5242 44.1736C64.6029 43.9153 64.7158 43.6915 64.8628 43.5024C65.0098 43.3133 65.1896 43.1655 65.4022 43.0589C65.6175 42.9497 65.859 42.8951 66.1267 42.8951C66.3709 42.8951 66.5795 42.9378 66.7528 43.023C66.9287 43.1056 67.0849 43.2214 67.2214 43.3706V41.1293H67.9222Z" fill="white"/>
<path id="Vector_40" d="M63.486 41.1293V47.0142H62.7852V41.1293H63.486Z" fill="white"/>
<path id="Vector_41" d="M61.6099 42.967V47.0142H60.9091V42.967H61.6099ZM61.7596 41.6966C61.7596 41.7658 61.7451 41.8311 61.7162 41.8923C61.69 41.9509 61.6532 42.0042 61.606 42.0521C61.5614 42.0974 61.5076 42.1334 61.4446 42.16C61.3842 42.1866 61.3199 42.2 61.2516 42.2C61.1834 42.2 61.1191 42.1866 61.0587 42.16C61.0009 42.1334 60.9497 42.0974 60.9051 42.0521C60.8605 42.0042 60.8251 41.9509 60.7988 41.8923C60.7726 41.8311 60.7594 41.7658 60.7594 41.6966C60.7594 41.6273 60.7726 41.5621 60.7988 41.5008C60.8251 41.4369 60.8605 41.3823 60.9051 41.337C60.9497 41.2891 61.0009 41.2518 61.0587 41.2251C61.1191 41.1985 61.1834 41.1852 61.2516 41.1852C61.3199 41.1852 61.3842 41.1985 61.4446 41.2251C61.5076 41.2518 61.5614 41.2891 61.606 41.337C61.6532 41.3823 61.69 41.4369 61.7162 41.5008C61.7451 41.5621 61.7596 41.6273 61.7596 41.6966Z" fill="white"/>
<path id="Vector_42" d="M59.7584 42.967V47.0142H59.341C59.2412 47.0142 59.1782 46.9649 59.152 46.8663L59.0969 46.4309C58.9236 46.6253 58.7294 46.7824 58.5141 46.9023C58.2989 47.0195 58.0521 47.0781 57.7739 47.0781C57.556 47.0781 57.3631 47.0421 57.1951 46.9702C57.0297 46.8956 56.8906 46.7918 56.7777 46.6586C56.6648 46.5254 56.5795 46.3643 56.5217 46.1752C56.4666 45.9861 56.4391 45.777 56.4391 45.5479V42.967H57.1399V45.5479C57.1399 45.8542 57.2082 46.0913 57.3447 46.2591C57.4838 46.4269 57.6951 46.5108 57.9786 46.5108C58.186 46.5108 58.3789 46.4615 58.5574 46.363C58.7386 46.2617 58.9052 46.1232 59.0575 45.9475V42.967H59.7584Z" fill="white"/>
<path id="Vector_43" d="M53.6179 46.3989C53.8358 46.3989 54.0235 46.3736 54.181 46.323C54.3385 46.2724 54.4671 46.2018 54.5668 46.1113C54.6692 46.018 54.744 45.9088 54.7913 45.7836C54.8385 45.6558 54.8621 45.516 54.8621 45.3642C54.8621 45.0685 54.7585 44.8355 54.5511 44.665C54.3437 44.4919 54.0326 44.4053 53.6179 44.4053H52.3973V46.3989H53.6179ZM52.3973 41.9003V43.854H53.4053C53.6205 43.854 53.8069 43.83 53.9644 43.7821C54.1245 43.7341 54.2558 43.6675 54.3581 43.5823C54.4631 43.4971 54.5406 43.3945 54.5905 43.2747C54.6403 43.1522 54.6653 43.019 54.6653 42.8752C54.6653 42.5369 54.5655 42.2905 54.366 42.136C54.1665 41.9789 53.8568 41.9003 53.4368 41.9003H52.3973ZM53.4368 41.2891C53.7833 41.2891 54.0812 41.3237 54.3306 41.3929C54.5826 41.4622 54.7886 41.5607 54.9488 41.6886C55.1115 41.8164 55.231 41.9736 55.3071 42.16C55.3832 42.3438 55.4213 42.5515 55.4213 42.7833C55.4213 42.9244 55.399 43.0603 55.3543 43.1908C55.3123 43.3186 55.248 43.4385 55.1614 43.5503C55.0748 43.6622 54.9645 43.7634 54.8306 43.854C54.6994 43.9419 54.5445 44.0138 54.366 44.0697C54.7808 44.1496 55.0918 44.3001 55.2992 44.5212C55.5092 44.7396 55.6142 45.0272 55.6142 45.3841C55.6142 45.6265 55.5696 45.8476 55.4803 46.0473C55.3937 46.2471 55.2651 46.4189 55.0945 46.5627C54.9265 46.7065 54.7191 46.8184 54.4723 46.8983C54.2256 46.9755 53.9447 47.0142 53.6297 47.0142H51.6373V41.2891H53.4368Z" fill="white"/>
</g>
</g>
</g>
</g>
<defs>
<clipPath id="clip0_1_3631">
<rect width="168" height="59" fill="white"/>
</clipPath>
</defs>
</svg>
