<svg width="71" height="36" viewBox="0 0 71 36" fill="none" xmlns="http://www.w3.org/2000/svg">
<g id="Group">
<g id="Page-1">
<g id="Dribbble-Light-Preview">
<g id="icons">
<path id="Vector" d="M16.3215 7.57269C19.3843 7.59887 21.6038 8.49805 22.9798 10.2687C24.3558 12.0394 24.8099 14.4579 24.3426 17.5242C24.1611 18.9254 23.7585 20.2996 23.1355 21.6476C22.5383 22.9956 21.7081 24.2112 20.6435 25.2952C19.3454 26.6694 17.9569 27.5416 16.4772 27.9119C14.9976 28.2822 13.4658 28.467 11.8826 28.467H7.21011L5.73049 36H0.318176L5.88624 7.57269H16.3215ZM62.483 7.57269C65.5458 7.59887 67.7653 8.49805 69.1413 10.2687C70.5173 12.0394 70.9713 14.4579 70.5041 17.5242C70.3226 18.9254 69.92 20.2996 69.297 21.6476C68.6997 22.9956 67.8696 24.2112 66.805 25.2952C65.5069 26.6694 64.1183 27.5416 62.6387 27.9119C61.1591 28.2822 59.6273 28.467 58.0441 28.467H53.3716L51.892 36H46.4797L52.0477 7.57269H62.483ZM35.8813 0L34.3628 7.57269H39.191C41.8388 7.6258 43.8113 8.18087 45.1095 9.23789C46.4334 10.2949 46.8228 12.3042 46.2776 15.2643L43.6688 28.467H38.2176L40.7096 15.859C40.9689 14.5372 40.891 13.5991 40.4759 13.0441C40.0609 12.489 39.1653 12.2115 37.7893 12.2115L33.4672 12.1718L30.2743 28.467H24.901L30.508 0H35.8813ZM12.1162 12.0925C11.8047 12.1187 11.5065 12.1322 11.2207 12.1322L10.434 12.1321L8.10567 23.9868C8.26142 24.013 8.41717 24.0264 8.57292 24.0264H9.11805C11.61 24.0526 13.687 23.802 15.348 23.2731C17.0091 22.7181 18.1258 20.7888 18.6967 17.4846C19.1639 14.7093 18.6967 13.1099 17.2949 12.6872C15.9189 12.2646 14.1931 12.0663 12.1162 12.0925ZM58.2777 12.0925C57.9662 12.1187 57.6679 12.1322 57.3822 12.1322L56.5955 12.1321L54.2672 23.9868C54.4229 24.013 54.5787 24.0264 54.7344 24.0264H55.2795C57.7715 24.0526 59.8484 23.802 61.5095 23.2731C63.1706 22.7181 64.2873 20.7888 64.8582 17.4846C65.3254 14.7093 64.8582 13.1099 63.4564 12.6872C62.0804 12.2646 60.3546 12.0663 58.2777 12.0925Z" fill="#CBD5E1"/>
</g>
</g>
</g>
</g>
</svg>
