<svg width="37" height="36" viewBox="0 0 37 36" fill="none" xmlns="http://www.w3.org/2000/svg">
<g id="Group">
<g id="Page-1">
<g id="Dribbble-Light-Preview">
<g id="icons">
<path id="python-[#127]" fill-rule="evenodd" clip-rule="evenodd" d="M23.7574 33.2244C22.8898 33.2244 22.1878 32.5189 22.1878 31.6468C22.1878 30.7746 22.8898 30.0709 23.7574 30.0709C24.625 30.0709 25.327 30.7746 25.327 31.6468C25.327 32.5189 24.625 33.2244 23.7574 33.2244ZM18.9478 36C28.0882 36 27.5176 32.0159 27.5176 32.0159L27.5068 27.8886H18.7858V26.6493H30.97C30.97 26.6493 36.8182 27.317 36.8182 18.0475C36.8182 8.77786 31.7152 9.10459 31.7152 9.10459H28.6677V13.4077C28.6677 13.4077 28.8316 18.537 23.6458 18.537H14.995C14.995 18.537 10.135 18.4599 10.135 23.2603V31.1959C10.135 31.1959 9.39696 36 18.9478 36ZM13.8808 2.77559C14.7484 2.77559 15.4486 3.48109 15.4486 4.35322C15.4486 5.22536 14.7484 5.9291 13.8808 5.9291C13.0132 5.9291 12.3112 5.22536 12.3112 4.35322C12.3112 3.48109 13.0132 2.77559 13.8808 2.77559ZM18.6886 0C9.54999 0 10.1206 3.98408 10.1206 3.98408L10.1314 8.11143H18.8524V9.35068H6.66636C6.66636 9.35068 0.818176 8.68295 0.818176 17.9525C0.818176 27.2221 5.92297 26.8954 5.92297 26.8954H8.9686V22.5923C8.9686 22.5923 8.80478 17.463 13.9924 17.463H22.6414C22.6414 17.463 27.5014 17.5401 27.5014 12.7397V4.8041C27.5014 4.8041 28.2394 0 18.6886 0Z" fill="#CBD5E1"/>
</g>
</g>
</g>
</g>
</svg>
