<svg width="30" height="34" viewBox="0 0 30 34" fill="none" xmlns="http://www.w3.org/2000/svg">
<g id="Group">
<g id="Page-1">
<g id="Dribbble-Light-Preview">
<g id="icons">
<path id="Vector" d="M15.0286 20.3022C14.438 20.5709 13.7908 20.9209 12.4954 21.6247C12.0042 21.8982 11.4909 22.1716 11.0132 22.4293C10.9801 22.3965 10.9457 22.3552 10.9125 22.3212C8.34981 19.6106 3.60993 17.6963 3.81131 14.0559C3.88622 12.7298 4.3467 9.24869 12.9141 5.02126C19.965 1.58146 25.5754 2.53439 26.5443 4.64811C27.9368 7.66128 23.5371 13.2683 16.2553 14.0814C15.4494 14.2432 14.6171 14.2237 13.8198 14.0242C13.0226 13.8248 12.2808 13.4505 11.6493 12.9292C11.2637 12.5147 11.206 12.4904 11.0636 12.573C10.829 12.6946 10.9801 13.0702 11.0636 13.2853C11.3413 13.7831 11.7171 14.2207 12.1687 14.5723C12.6202 14.9238 13.1384 15.1822 13.6926 15.3322C16.5582 15.9452 19.5458 15.6523 22.2342 14.4947C26.6474 12.804 30.0931 8.10371 29.0837 4.16313C28.0706 0.167856 21.371 -1.14972 15.0323 1.07946C11.0627 2.4036 7.39511 4.48804 4.23864 7.21398C0.746354 10.4472 0.193778 13.2573 0.41972 14.4339C1.23262 18.6115 7.05064 21.3305 9.38374 23.3446C9.26094 23.4114 9.15779 23.4661 9.0657 23.5184C7.9016 24.0909 3.4638 26.3869 2.35742 28.8155C1.10123 31.5673 2.5588 33.54 3.52152 33.805C4.97232 34.149 6.49544 34.0359 7.87817 33.4815C9.2609 32.9272 10.4342 31.9592 11.2343 30.7128C11.9136 29.6793 12.3308 28.4986 12.4503 27.2712C12.5698 26.0438 12.3881 24.806 11.9207 23.663C12.1965 23.4453 12.4906 23.2513 12.7999 23.0833C13.3942 22.7356 13.9603 22.3929 14.4625 22.1279C16.1821 21.3306 18.0587 20.9201 19.9576 20.9258C23.9435 21.3901 24.7306 23.8514 24.5796 24.8882C24.5089 25.2561 24.3595 25.6047 24.1413 25.9106C23.9232 26.2165 23.6413 26.4726 23.3148 26.6616C23.0385 26.8354 22.9464 26.8938 22.971 27.0178C23.0041 27.2001 23.138 27.1916 23.3725 27.1588C23.9714 26.9714 24.499 26.6091 24.886 26.1195C25.273 25.6299 25.5014 25.0359 25.5411 24.4154C25.6639 21.9845 23.3222 19.3177 19.1766 19.342C17.9353 19.3441 16.7064 19.5865 15.5591 20.0555C15.3749 20.1309 15.196 20.2119 15.0225 20.2986L15.0286 20.3022ZM9.10376 29.8304C7.78004 31.2561 5.93812 31.7946 5.14241 31.3388C4.28284 30.8526 4.62298 28.7437 6.24756 27.2353C7.20973 26.3772 8.24969 25.6086 9.35427 24.9393C9.54705 24.8177 9.83194 24.6573 10.1745 24.4531C10.2335 24.4203 10.2666 24.4033 10.2666 24.4033L10.468 24.2817C10.7578 25.2433 10.7841 26.2638 10.5444 27.2388C10.3047 28.2137 9.8075 29.1081 9.10376 29.8304Z" fill="#CBD5E1"/>
</g>
</g>
</g>
</g>
</svg>
