<svg width="27" height="34" viewBox="0 0 27 34" fill="none" xmlns="http://www.w3.org/2000/svg">
<g id="Group">
<g id="Page-1">
<g id="Dribbble-Light-Preview">
<g id="icons">
<path id="Vector" d="M11.2977 33.9782C8.11517 33.7488 4.96962 32.9477 3.04049 31.8753C1.94165 31.2644 1.10449 30.5137 0.775989 29.8447L0.580536 29.4466V16.9598V4.47313L0.735196 4.1591C1.42635 2.75588 3.63213 1.49087 6.71128 0.731844C7.75651 0.474174 9.26544 0.217575 10.4964 0.0881812C11.7535 -0.043981 15.0853 -0.0238735 16.3392 0.123637C19.6717 0.515169 22.5076 1.39171 24.2552 2.57049C24.9291 3.02506 25.6207 3.75243 25.8549 4.25311L26.0558 4.68237L26.0386 17.1313L26.0214 29.5803L25.8602 29.9079C25.7715 30.0881 25.5037 30.4425 25.2649 30.6955C23.8118 32.236 20.6948 33.3755 16.6063 33.861C15.773 33.96 12.1527 34.0398 11.2977 33.9782ZM17.1627 23.2788C17.1505 23.2468 16.6747 22.823 16.1055 22.3369C15.5362 21.8507 15.0459 21.4301 15.016 21.4022C14.986 21.3742 15.0912 21.2754 15.2497 21.1825C15.4082 21.0895 15.7119 20.831 15.9246 20.608C16.5465 19.9558 16.84 19.1502 16.84 18.095C16.84 17.0562 16.5235 16.218 15.8896 15.5782C15.2507 14.9332 14.5172 14.6561 13.4489 14.6561C11.8023 14.6561 10.5377 15.6169 10.1341 17.1746C9.99528 17.7104 9.99602 18.793 10.1356 19.2681C10.4996 20.5073 11.4909 21.4074 12.7247 21.6187C13.1422 21.6902 13.1988 21.721 13.4834 22.0322C13.6526 22.2172 13.9998 22.5864 14.2549 22.8526L14.7187 23.3367H15.9519C16.6301 23.3367 17.175 23.3107 17.1627 23.2788ZM12.9338 19.8261C12.637 19.6713 12.5247 19.5512 12.3555 19.207C12.2247 18.9412 12.2024 18.79 12.2009 18.1618C12.1994 17.5234 12.2197 17.3855 12.3563 17.1083C12.5796 16.6547 12.8874 16.4399 13.3636 16.4055C14.0263 16.3574 14.4089 16.6827 14.6094 17.4644C14.8552 18.4228 14.5849 19.4418 13.9951 19.7799C13.6857 19.9573 13.2241 19.9774 12.9338 19.8261ZM7.46807 21.6051C8.76094 21.3599 9.49485 20.608 9.49485 19.5287C9.49485 18.5712 9.02103 18.0133 7.71149 17.4287C6.96185 17.094 6.69032 16.8839 6.69032 16.6385C6.69032 16.4351 6.948 16.2122 7.24798 16.1562C7.54088 16.1015 8.31771 16.2364 8.77645 16.4217L9.16098 16.5771V15.7259V14.8747L8.74363 14.7821C8.4857 14.7249 7.94371 14.6906 7.32468 14.6923C6.44783 14.6923 6.27614 14.7137 5.94616 14.8447C4.98229 15.2274 4.52491 15.8792 4.53222 16.8597C4.53907 17.7776 5.0233 18.3502 6.22845 18.8652C6.93952 19.1692 7.22454 19.4006 7.22454 19.6741C7.22454 20.2552 6.25621 20.3267 5.23099 19.8213C4.95023 19.6829 4.69797 19.5584 4.67043 19.5446C4.64289 19.5308 4.62036 19.9284 4.62036 20.4282C4.62036 21.3327 4.62132 21.3371 4.7851 21.3995C5.40185 21.634 6.76499 21.7384 7.46807 21.6051ZM22.2487 20.7659V19.9981H21.0801H19.9116V17.3605V14.7229H18.8766H17.8416V18.1284V21.5338H20.0451H22.2487V20.7659ZM15.0371 7.30929C17.0938 7.16664 18.6355 6.89731 19.9922 6.4437C21.3438 5.99179 22.1422 5.44499 22.3208 4.84892C22.3896 4.61923 22.3846 4.5321 22.2885 4.28026C21.8573 3.15122 19.4486 2.28378 15.7678 1.93207C14.1934 1.7816 11.33 1.83038 9.8288 2.03316C7.53817 2.34266 5.6792 2.91753 4.85263 3.57203C3.18056 4.89608 4.94878 6.35236 9.06084 7.0378C10.8438 7.335 13.1538 7.43995 15.0371 7.30929Z" fill="#CBD5E1"/>
</g>
</g>
</g>
</g>
</svg>
